<mxfile host="app.diagrams.net" modified="2022-10-09T08:08:01.775Z" agent="5.0 (X11; Linux x86_64) AppleWebKit/537.36 (KHTML, like Gecko) Chrome/106.0.0.0 Safari/537.36" etag="2xdmLLl8JdMndfVAQCyU" version="20.4.0" type="github">
  <diagram id="kxwwjnZhEfSy221t1gbS" name="Page-1">
    <mxGraphModel dx="1134" dy="629" grid="1" gridSize="10" guides="1" tooltips="1" connect="1" arrows="1" fold="1" page="1" pageScale="1" pageWidth="850" pageHeight="1100" math="0" shadow="0">
      <root>
        <mxCell id="0" />
        <mxCell id="1" parent="0" />
        <mxCell id="hreULt6u05wLk5KOpKzd-1" value="Sales" style="shape=umlActor;verticalLabelPosition=bottom;verticalAlign=top;html=1;outlineConnect=0;" parent="1" vertex="1">
          <mxGeometry x="90" y="490" width="30" height="60" as="geometry" />
        </mxCell>
        <mxCell id="hreULt6u05wLk5KOpKzd-2" value="Gudang" style="shape=umlActor;verticalLabelPosition=bottom;verticalAlign=top;html=1;outlineConnect=0;" parent="1" vertex="1">
          <mxGeometry x="690" y="395" width="30" height="60" as="geometry" />
        </mxCell>
        <mxCell id="hreULt6u05wLk5KOpKzd-3" value="Membuat &lt;br&gt;Permintaan Barang" style="ellipse;whiteSpace=wrap;html=1;" parent="1" vertex="1">
          <mxGeometry x="190" y="540" width="120" height="80" as="geometry" />
        </mxCell>
        <mxCell id="hreULt6u05wLk5KOpKzd-4" value="Melihat Riwayat Permintaan Barang" style="ellipse;whiteSpace=wrap;html=1;" parent="1" vertex="1">
          <mxGeometry x="180" y="380" width="120" height="80" as="geometry" />
        </mxCell>
        <mxCell id="hreULt6u05wLk5KOpKzd-6" value="" style="endArrow=none;html=1;rounded=0;exitX=0.5;exitY=0.5;exitDx=0;exitDy=0;exitPerimeter=0;entryX=0;entryY=0.5;entryDx=0;entryDy=0;" parent="1" source="hreULt6u05wLk5KOpKzd-1" target="hreULt6u05wLk5KOpKzd-3" edge="1">
          <mxGeometry width="50" height="50" relative="1" as="geometry">
            <mxPoint x="440" y="500" as="sourcePoint" />
            <mxPoint x="490" y="450" as="targetPoint" />
          </mxGeometry>
        </mxCell>
        <mxCell id="hreULt6u05wLk5KOpKzd-7" value="&amp;lt;extend&amp;gt;" style="endArrow=none;html=1;rounded=0;entryX=0.5;entryY=1;entryDx=0;entryDy=0;exitX=0.5;exitY=0;exitDx=0;exitDy=0;startArrow=classic;startFill=1;" parent="1" source="hreULt6u05wLk5KOpKzd-3" target="hreULt6u05wLk5KOpKzd-4" edge="1">
          <mxGeometry width="50" height="50" relative="1" as="geometry">
            <mxPoint x="440" y="500" as="sourcePoint" />
            <mxPoint x="490" y="450" as="targetPoint" />
          </mxGeometry>
        </mxCell>
        <mxCell id="hreULt6u05wLk5KOpKzd-8" value="Admin" style="shape=umlActor;verticalLabelPosition=bottom;verticalAlign=top;html=1;outlineConnect=0;" parent="1" vertex="1">
          <mxGeometry x="265" y="775" width="30" height="60" as="geometry" />
        </mxCell>
        <mxCell id="hreULt6u05wLk5KOpKzd-11" value="Mengubah &lt;br&gt;Hak Akses" style="ellipse;whiteSpace=wrap;html=1;" parent="1" vertex="1">
          <mxGeometry x="260" y="635" width="110" height="80" as="geometry" />
        </mxCell>
        <mxCell id="hreULt6u05wLk5KOpKzd-12" value="Menambah User" style="ellipse;whiteSpace=wrap;html=1;" parent="1" vertex="1">
          <mxGeometry x="560" y="735" width="100" height="60" as="geometry" />
        </mxCell>
        <mxCell id="hreULt6u05wLk5KOpKzd-13" value="Menghapus &lt;br&gt;User" style="ellipse;whiteSpace=wrap;html=1;" parent="1" vertex="1">
          <mxGeometry x="510" y="820" width="100" height="60" as="geometry" />
        </mxCell>
        <mxCell id="hreULt6u05wLk5KOpKzd-14" value="Mengelola User" style="ellipse;whiteSpace=wrap;html=1;" parent="1" vertex="1">
          <mxGeometry x="380" y="715" width="120" height="80" as="geometry" />
        </mxCell>
        <mxCell id="hreULt6u05wLk5KOpKzd-15" value="" style="endArrow=block;html=1;rounded=0;exitX=0;exitY=0.5;exitDx=0;exitDy=0;entryX=1;entryY=0.5;entryDx=0;entryDy=0;endFill=0;" parent="1" source="hreULt6u05wLk5KOpKzd-12" target="hreULt6u05wLk5KOpKzd-14" edge="1">
          <mxGeometry width="50" height="50" relative="1" as="geometry">
            <mxPoint x="310" y="675" as="sourcePoint" />
            <mxPoint x="360" y="625" as="targetPoint" />
          </mxGeometry>
        </mxCell>
        <mxCell id="hreULt6u05wLk5KOpKzd-18" value="" style="endArrow=block;html=1;rounded=0;exitX=0;exitY=0;exitDx=0;exitDy=0;entryX=1;entryY=1;entryDx=0;entryDy=0;endFill=0;" parent="1" source="hreULt6u05wLk5KOpKzd-13" target="hreULt6u05wLk5KOpKzd-14" edge="1">
          <mxGeometry width="50" height="50" relative="1" as="geometry">
            <mxPoint x="600" y="765" as="sourcePoint" />
            <mxPoint x="510" y="765" as="targetPoint" />
          </mxGeometry>
        </mxCell>
        <mxCell id="hreULt6u05wLk5KOpKzd-19" value="" style="endArrow=none;html=1;rounded=0;exitX=0.5;exitY=0.5;exitDx=0;exitDy=0;exitPerimeter=0;entryX=0.5;entryY=1;entryDx=0;entryDy=0;" parent="1" source="hreULt6u05wLk5KOpKzd-8" target="hreULt6u05wLk5KOpKzd-11" edge="1">
          <mxGeometry width="50" height="50" relative="1" as="geometry">
            <mxPoint x="-70" y="625" as="sourcePoint" />
            <mxPoint x="42.57359312880715" y="563.2842712474619" as="targetPoint" />
          </mxGeometry>
        </mxCell>
        <mxCell id="hreULt6u05wLk5KOpKzd-20" value="Menghapus &lt;br&gt;User" style="ellipse;whiteSpace=wrap;html=1;" parent="1" vertex="1">
          <mxGeometry x="390" y="860" width="100" height="60" as="geometry" />
        </mxCell>
        <mxCell id="hreULt6u05wLk5KOpKzd-21" value="" style="endArrow=block;html=1;rounded=0;exitX=0.5;exitY=0;exitDx=0;exitDy=0;entryX=0.5;entryY=1;entryDx=0;entryDy=0;endFill=0;" parent="1" source="hreULt6u05wLk5KOpKzd-20" target="hreULt6u05wLk5KOpKzd-14" edge="1">
          <mxGeometry width="50" height="50" relative="1" as="geometry">
            <mxPoint x="570" y="855" as="sourcePoint" />
            <mxPoint x="492.42640687119274" y="793.2842712474619" as="targetPoint" />
          </mxGeometry>
        </mxCell>
        <mxCell id="hreULt6u05wLk5KOpKzd-22" value="" style="endArrow=none;html=1;rounded=0;exitX=0.5;exitY=0.5;exitDx=0;exitDy=0;exitPerimeter=0;entryX=0;entryY=1;entryDx=0;entryDy=0;" parent="1" source="hreULt6u05wLk5KOpKzd-8" target="hreULt6u05wLk5KOpKzd-14" edge="1">
          <mxGeometry width="50" height="50" relative="1" as="geometry">
            <mxPoint x="290" y="785" as="sourcePoint" />
            <mxPoint x="290" y="715" as="targetPoint" />
          </mxGeometry>
        </mxCell>
        <mxCell id="hreULt6u05wLk5KOpKzd-23" value="Menginput&amp;nbsp; Data Barang Masuk" style="ellipse;whiteSpace=wrap;html=1;" parent="1" vertex="1">
          <mxGeometry x="470" y="165" width="110" height="80" as="geometry" />
        </mxCell>
        <mxCell id="hreULt6u05wLk5KOpKzd-24" value="Melihat Stok &lt;br&gt;Barang" style="ellipse;whiteSpace=wrap;html=1;" parent="1" vertex="1">
          <mxGeometry x="650" y="145" width="110" height="80" as="geometry" />
        </mxCell>
        <mxCell id="hreULt6u05wLk5KOpKzd-25" value="Cetak Laporan Barang Keluar" style="ellipse;whiteSpace=wrap;html=1;" parent="1" vertex="1">
          <mxGeometry x="350" y="375" width="110" height="80" as="geometry" />
        </mxCell>
        <mxCell id="hreULt6u05wLk5KOpKzd-26" value="Mengonfirmasi Permintaan barang" style="ellipse;whiteSpace=wrap;html=1;" parent="1" vertex="1">
          <mxGeometry x="470" y="455" width="110" height="80" as="geometry" />
        </mxCell>
        <mxCell id="hreULt6u05wLk5KOpKzd-27" value="&amp;lt;extend&amp;gt;" style="endArrow=none;html=1;rounded=0;entryX=0;entryY=0.5;entryDx=0;entryDy=0;exitX=1;exitY=0.5;exitDx=0;exitDy=0;startArrow=classic;startFill=1;" parent="1" source="hreULt6u05wLk5KOpKzd-23" target="hreULt6u05wLk5KOpKzd-24" edge="1">
          <mxGeometry width="50" height="50" relative="1" as="geometry">
            <mxPoint x="170" y="385" as="sourcePoint" />
            <mxPoint x="180" y="325" as="targetPoint" />
          </mxGeometry>
        </mxCell>
        <mxCell id="hreULt6u05wLk5KOpKzd-28" value="Cetak Laporan Barang Masuk" style="ellipse;whiteSpace=wrap;html=1;" parent="1" vertex="1">
          <mxGeometry x="350" y="255" width="110" height="80" as="geometry" />
        </mxCell>
        <mxCell id="hreULt6u05wLk5KOpKzd-30" value="" style="endArrow=none;html=1;rounded=0;exitX=0.5;exitY=0.5;exitDx=0;exitDy=0;exitPerimeter=0;entryX=0.5;entryY=1;entryDx=0;entryDy=0;" parent="1" source="hreULt6u05wLk5KOpKzd-2" target="hreULt6u05wLk5KOpKzd-24" edge="1">
          <mxGeometry width="50" height="50" relative="1" as="geometry">
            <mxPoint x="305" y="765" as="sourcePoint" />
            <mxPoint x="325" y="685" as="targetPoint" />
          </mxGeometry>
        </mxCell>
        <mxCell id="hreULt6u05wLk5KOpKzd-31" value="" style="endArrow=none;html=1;rounded=0;entryX=0.5;entryY=0.5;entryDx=0;entryDy=0;entryPerimeter=0;exitX=1;exitY=0;exitDx=0;exitDy=0;" parent="1" source="hreULt6u05wLk5KOpKzd-26" target="hreULt6u05wLk5KOpKzd-2" edge="1">
          <mxGeometry width="50" height="50" relative="1" as="geometry">
            <mxPoint x="630" y="545" as="sourcePoint" />
            <mxPoint x="680" y="495" as="targetPoint" />
          </mxGeometry>
        </mxCell>
        <mxCell id="hreULt6u05wLk5KOpKzd-33" value="" style="endArrow=none;html=1;rounded=0;entryX=1;entryY=1;entryDx=0;entryDy=0;exitX=0.5;exitY=0.5;exitDx=0;exitDy=0;exitPerimeter=0;" parent="1" source="hreULt6u05wLk5KOpKzd-2" target="hreULt6u05wLk5KOpKzd-23" edge="1">
          <mxGeometry width="50" height="50" relative="1" as="geometry">
            <mxPoint x="700" y="435" as="sourcePoint" />
            <mxPoint x="645" y="265" as="targetPoint" />
          </mxGeometry>
        </mxCell>
        <mxCell id="hreULt6u05wLk5KOpKzd-35" value="" style="endArrow=none;html=1;rounded=0;exitX=0.5;exitY=0.5;exitDx=0;exitDy=0;exitPerimeter=0;entryX=0;entryY=1;entryDx=0;entryDy=0;" parent="1" source="hreULt6u05wLk5KOpKzd-1" target="hreULt6u05wLk5KOpKzd-4" edge="1">
          <mxGeometry width="50" height="50" relative="1" as="geometry">
            <mxPoint x="115" y="530" as="sourcePoint" />
            <mxPoint x="237.57359312880726" y="528.2842712474617" as="targetPoint" />
          </mxGeometry>
        </mxCell>
        <mxCell id="hreULt6u05wLk5KOpKzd-36" value="Menerima&lt;br&gt;Permintaan Barang" style="ellipse;whiteSpace=wrap;html=1;" parent="1" vertex="1">
          <mxGeometry x="470" y="575" width="120" height="80" as="geometry" />
        </mxCell>
        <mxCell id="hreULt6u05wLk5KOpKzd-38" value="" style="endArrow=none;html=1;rounded=0;exitX=0.5;exitY=0.5;exitDx=0;exitDy=0;exitPerimeter=0;entryX=1;entryY=0.5;entryDx=0;entryDy=0;" parent="1" source="hreULt6u05wLk5KOpKzd-2" target="hreULt6u05wLk5KOpKzd-36" edge="1">
          <mxGeometry width="50" height="50" relative="1" as="geometry">
            <mxPoint x="715" y="435" as="sourcePoint" />
            <mxPoint x="540" y="445" as="targetPoint" />
          </mxGeometry>
        </mxCell>
        <mxCell id="hreULt6u05wLk5KOpKzd-39" value="" style="endArrow=none;html=1;rounded=0;exitX=1;exitY=0.5;exitDx=0;exitDy=0;entryX=0;entryY=0.5;entryDx=0;entryDy=0;" parent="1" target="hreULt6u05wLk5KOpKzd-36" edge="1" source="hreULt6u05wLk5KOpKzd-3">
          <mxGeometry width="50" height="50" relative="1" as="geometry">
            <mxPoint x="260" y="565" as="sourcePoint" />
            <mxPoint x="540" y="455" as="targetPoint" />
          </mxGeometry>
        </mxCell>
        <mxCell id="hreULt6u05wLk5KOpKzd-40" value="&amp;lt;&amp;lt;include&amp;gt;&amp;gt;" style="endArrow=none;html=1;rounded=0;entryX=0.5;entryY=1;entryDx=0;entryDy=0;exitX=0.5;exitY=0;exitDx=0;exitDy=0;startArrow=classic;startFill=1;" parent="1" source="hreULt6u05wLk5KOpKzd-36" target="hreULt6u05wLk5KOpKzd-26" edge="1">
          <mxGeometry width="50" height="50" relative="1" as="geometry">
            <mxPoint x="536.1091270347399" y="583.2842712474619" as="sourcePoint" />
            <mxPoint x="423.8908729652601" y="556.7157287525379" as="targetPoint" />
          </mxGeometry>
        </mxCell>
        <mxCell id="hreULt6u05wLk5KOpKzd-41" value="&amp;lt;extend&amp;gt;" style="endArrow=classic;html=1;rounded=0;entryX=0.5;entryY=1;entryDx=0;entryDy=0;exitX=0.5;exitY=0;exitDx=0;exitDy=0;startArrow=none;startFill=0;endFill=1;" parent="1" edge="1" target="hreULt6u05wLk5KOpKzd-28" source="hreULt6u05wLk5KOpKzd-25">
          <mxGeometry width="50" height="50" relative="1" as="geometry">
            <mxPoint x="334" y="365" as="sourcePoint" />
            <mxPoint x="334" y="315" as="targetPoint" />
          </mxGeometry>
        </mxCell>
        <mxCell id="ey4v1inMysf7_5dldKkN-1" value="" style="endArrow=none;html=1;rounded=0;entryX=1;entryY=0.5;entryDx=0;entryDy=0;exitX=0;exitY=0.3333333333333333;exitDx=0;exitDy=0;exitPerimeter=0;" edge="1" parent="1" source="hreULt6u05wLk5KOpKzd-2" target="hreULt6u05wLk5KOpKzd-25">
          <mxGeometry width="50" height="50" relative="1" as="geometry">
            <mxPoint x="650" y="415" as="sourcePoint" />
            <mxPoint x="573.8908729652601" y="243.28427124746167" as="targetPoint" />
          </mxGeometry>
        </mxCell>
        <mxCell id="ey4v1inMysf7_5dldKkN-2" value="" style="endArrow=none;html=1;rounded=0;entryX=1;entryY=1;entryDx=0;entryDy=0;exitX=0;exitY=0.3333333333333333;exitDx=0;exitDy=0;exitPerimeter=0;" edge="1" parent="1" target="hreULt6u05wLk5KOpKzd-28">
          <mxGeometry width="50" height="50" relative="1" as="geometry">
            <mxPoint x="700" y="425" as="sourcePoint" />
            <mxPoint x="470" y="425" as="targetPoint" />
          </mxGeometry>
        </mxCell>
        <mxCell id="ey4v1inMysf7_5dldKkN-3" value="Melihat Stok&lt;br&gt;Barang&amp;nbsp;" style="ellipse;whiteSpace=wrap;html=1;" vertex="1" parent="1">
          <mxGeometry x="160" y="210" width="120" height="80" as="geometry" />
        </mxCell>
        <mxCell id="ey4v1inMysf7_5dldKkN-4" value="" style="endArrow=none;html=1;rounded=0;exitX=0.5;exitY=0.5;exitDx=0;exitDy=0;exitPerimeter=0;entryX=0;entryY=1;entryDx=0;entryDy=0;" edge="1" parent="1" source="hreULt6u05wLk5KOpKzd-1" target="ey4v1inMysf7_5dldKkN-3">
          <mxGeometry width="50" height="50" relative="1" as="geometry">
            <mxPoint x="115" y="530" as="sourcePoint" />
            <mxPoint x="207.57359312880726" y="458.2842712474619" as="targetPoint" />
          </mxGeometry>
        </mxCell>
        <mxCell id="ey4v1inMysf7_5dldKkN-5" value="&amp;lt;extend&amp;gt;" style="endArrow=none;html=1;rounded=0;entryX=0.5;entryY=1;entryDx=0;entryDy=0;exitX=0.5;exitY=0;exitDx=0;exitDy=0;startArrow=classic;startFill=1;" edge="1" parent="1" source="hreULt6u05wLk5KOpKzd-4" target="ey4v1inMysf7_5dldKkN-3">
          <mxGeometry width="50" height="50" relative="1" as="geometry">
            <mxPoint x="260" y="550" as="sourcePoint" />
            <mxPoint x="250" y="470" as="targetPoint" />
          </mxGeometry>
        </mxCell>
      </root>
    </mxGraphModel>
  </diagram>
</mxfile>
